<?xml version="1.0" encoding="UTF-8" standalone="no"?>
<!-- Created with Inkscape (http://www.inkscape.org/) -->

<svg
   version="1.1"
   id="svg5321"
   width="880"
   height="880"
   viewBox="0 0 880 880"
   sodipodi:docname="pig-in-the-mud--publicdomainvectors.org.svg"
   inkscape:version="1.2 (dc2aedaf03, 2022-05-15)"
   xmlns:inkscape="http://www.inkscape.org/namespaces/inkscape"
   xmlns:sodipodi="http://sodipodi.sourceforge.net/DTD/sodipodi-0.dtd"
   xmlns="http://www.w3.org/2000/svg"
   xmlns:svg="http://www.w3.org/2000/svg">
  <defs
     id="defs5325">
    <clipPath
       clipPathUnits="userSpaceOnUse"
       id="clipPath5337">
      <path
         d="M 0,660 H 660 V 0 H 0 Z"
         id="path5335" />
    </clipPath>
  </defs>
  <sodipodi:namedview
     id="namedview5323"
     pagecolor="#ffffff"
     bordercolor="#000000"
     borderopacity="0.25"
     inkscape:showpageshadow="2"
     inkscape:pageopacity="0.0"
     inkscape:pagecheckerboard="0"
     inkscape:deskcolor="#d1d1d1"
     showgrid="false"
     inkscape:zoom="0.95113636"
     inkscape:cx="440.52569"
     inkscape:cy="440.52569"
     inkscape:window-width="1920"
     inkscape:window-height="1017"
     inkscape:window-x="-8"
     inkscape:window-y="-8"
     inkscape:window-maximized="1"
     inkscape:current-layer="g5329">
    <inkscape:page
       x="0"
       y="0"
       id="page5327"
       width="880"
       height="880" />
  </sodipodi:namedview>
  <g
     id="g5329"
     inkscape:groupmode="layer"
     inkscape:label="Page 1"
     transform="matrix(1.3333333,0,0,-1.3333333,0,880)">
    <g
       id="g5331">
      <g
         id="g5333"
         clip-path="url(#clipPath5337)">
        <g
           id="g5339"
           transform="translate(114.4868,507.2495)">
          <path
             d="m 0,0 h 89.112 c 18.938,0 34.434,-15.496 34.434,-34.435 0,-18.94 -15.496,-34.436 -34.434,-34.436 H 0 c -18.94,0 -34.436,15.496 -34.436,34.436 C -34.436,-15.496 -18.94,0 0,0"
             style="fill:#cfe35d;fill-opacity:1;fill-rule:evenodd;stroke:none"
             id="path5341" />
        </g>
        <g
           id="g5343"
           transform="translate(306.8672,533.917)">
          <path
             d="m 0,0 h 129.2 c 18.939,0 34.435,-15.495 34.435,-34.435 v -10e-4 c 0,-18.939 -15.496,-34.434 -34.435,-34.434 H 0 c -18.94,0 -34.435,15.495 -34.435,34.434 v 10e-4 C -34.435,-15.495 -18.94,0 0,0"
             style="fill:#dded85;fill-opacity:1;fill-rule:evenodd;stroke:none"
             id="path5345" />
        </g>
        <g
           id="g5347"
           transform="translate(475.9043,436.2837)">
          <path
             d="m 0,0 h 73.692 c 18.94,0 34.435,-15.495 34.435,-34.435 v -10e-4 c 0,-18.939 -15.495,-34.435 -34.435,-34.435 H 0 c -18.94,0 -34.435,15.496 -34.435,34.435 v 10e-4 C -34.435,-15.495 -18.94,0 0,0"
             style="fill:#cfe35d;fill-opacity:1;fill-rule:evenodd;stroke:none"
             id="path5349" />
        </g>
        <g
           id="g5351"
           transform="translate(172.2197,417.8125)">
          <path
             d="m 0,0 c 13.204,0 23.909,4.136 23.909,-9.069 0,-13.204 -10.705,-23.909 -23.909,-23.909 -13.204,0 -23.909,10.705 -23.909,23.909 C -23.909,4.136 -13.204,0 0,0"
             style="fill:#e06e36;fill-opacity:1;fill-rule:evenodd;stroke:none"
             id="path5353" />
        </g>
        <g
           id="g5355"
           transform="translate(103.1494,345.7344)">
          <path
             d="m 0,0 h 453.313 c 18.941,0 34.437,-15.495 34.437,-34.435 v -10e-4 c 0,-18.94 -15.496,-34.434 -34.437,-34.434 H 0 c -18.94,0 -34.436,15.494 -34.436,34.434 v 10e-4 C -34.436,-15.495 -18.94,0 0,0"
             style="fill:#823103;fill-opacity:1;fill-rule:evenodd;stroke:none"
             id="path5357" />
        </g>
        <path
           d="m 501.028,325.223 h 45.145 v 24.298 h -45.145 z"
           style="fill:#e0743e;fill-opacity:1;fill-rule:evenodd;stroke:none"
           id="path5359" />
        <g
           id="g5361"
           transform="translate(521.2471,325.2227)">
          <path
             d="m 0,0 h 33.543 l -8.618,12.148 8.618,12.15 H 0 Z"
             style="fill:#d15f26;fill-opacity:1;fill-rule:evenodd;stroke:none"
             id="path5363" />
        </g>
        <g
           id="g5365"
           transform="translate(370.4102,443.9014)">
          <path
             d="M 0,0 C 78.498,0 142.413,-62.406 144.855,-140.312 H -144.856 C -142.414,-62.406 -78.498,0 0,0"
             style="fill:#ff9966;fill-opacity:1;fill-rule:evenodd;stroke:none"
             id="path5367" />
        </g>
        <g
           id="g5369"
           transform="translate(370.4102,443.9014)">
          <path
             d="M 0,0 C 30.424,0 58.653,-9.379 81.968,-25.398 25.807,-2.292 -61.073,-20.088 -81.855,-102 c -0.215,21.907 -9.629,41.612 -24.566,55.439 C -79.947,-17.931 -42.07,0 0,0"
             style="fill:#ffb691;fill-opacity:1;fill-rule:evenodd;stroke:none"
             id="path5371" />
        </g>
        <g
           id="g5373"
           transform="translate(211.9834,417.7129)">
          <path
             d="m 0,0 c 42.295,0 76.581,-34.286 76.581,-76.58 0,-13.643 -3.572,-26.449 -9.824,-37.543 H -66.756 c -6.252,11.094 -9.824,23.9 -9.824,37.543 C -76.58,-34.286 -42.294,0 0,0"
             style="fill:#ff9966;fill-opacity:1;fill-rule:evenodd;stroke:none"
             id="path5375" />
        </g>
        <g
           id="g5377"
           transform="translate(231.6289,303.5898)">
          <path
             d="m 0,0 h -25.555 c 0,7.057 5.721,12.777 12.778,12.777 C -5.721,12.777 0,7.057 0,0"
             style="fill:#edd0c2;fill-opacity:1;fill-rule:evenodd;stroke:none"
             id="path5379" />
        </g>
        <g
           id="g5381"
           transform="translate(157.4873,348.9473)">
          <path
             d="M 0,0 C 5.626,0 10.214,8.543 10.214,19.017 10.214,29.491 5.626,38.033 0,38.033 -5.625,38.033 -10.214,29.491 -10.214,19.017 -10.214,8.543 -5.625,0 0,0"
             style="fill:#ffffff;fill-opacity:1;fill-rule:evenodd;stroke:none"
             id="path5383" />
        </g>
        <g
           id="g5385"
           transform="translate(154.7734,370.4053)">
          <path
             d="M 0,0 C 1.097,0 2.118,-0.378 2.984,-1.031 L 0,-6.811 5.639,-6.775 5.64,-6.811 c 0,-3.76 -2.525,-6.809 -5.64,-6.809 -3.114,0 -5.638,3.049 -5.638,6.809 C -5.638,-3.05 -3.114,0 0,0"
             style="fill:#333333;fill-opacity:1;fill-rule:evenodd;stroke:none"
             id="path5387" />
        </g>
        <g
           id="g5389"
           transform="translate(170.582,356.0146)">
          <path
             d="m 0,0 c 19.429,0 35.18,-15.75 35.18,-35.179 0,-6.266 -1.642,-12.149 -4.513,-17.246 H 0 -30.665 c -2.873,5.097 -4.514,10.98 -4.514,17.246 0,6.267 1.641,12.15 4.514,17.246 l 0,17.933 z"
             style="fill:#ffa578;fill-opacity:1;fill-rule:evenodd;stroke:none"
             id="path5391" />
        </g>
        <g
           id="g5393"
           transform="translate(142.3643,356.0146)">
          <path
             d="m 0,0 c 19.428,0 35.178,-15.75 35.178,-35.179 0,-6.266 -1.64,-12.149 -4.512,-17.246 h -61.333 c -2.871,5.097 -4.513,10.98 -4.513,17.246 C -35.18,-15.75 -19.429,0 0,0"
             style="fill:#e06e36;fill-opacity:1;fill-rule:evenodd;stroke:none"
             id="path5395" />
        </g>
        <path
           d="m 508.866,303.59 h 45.145 v 24.298 h -45.145 z"
           style="fill:#ff9966;fill-opacity:1;fill-rule:evenodd;stroke:none"
           id="path5397" />
        <g
           id="g5399"
           transform="translate(529.0869,303.5898)">
          <path
             d="m 0,0 h 33.543 l -8.619,12.15 8.619,12.148 H 0 Z"
             style="fill:#e0743e;fill-opacity:1;fill-rule:evenodd;stroke:none"
             id="path5401" />
        </g>
        <g
           id="g5403"
           transform="translate(311.582,303.5898)">
          <path
             d="M 0,0 H 32.998 V 24.298 H 0 c -6.682,0 -12.149,-5.467 -12.149,-12.148 C -12.149,5.467 -6.682,0 0,0"
             style="fill:#ffa578;fill-opacity:1;fill-rule:evenodd;stroke:none"
             id="path5405" />
        </g>
        <g
           id="g5407"
           transform="translate(338.1504,303.5898)">
          <path
             d="m 0,0 h 33.543 l -8.618,12.15 8.618,12.148 H 0 Z"
             style="fill:#e0743e;fill-opacity:1;fill-rule:evenodd;stroke:none"
             id="path5409" />
        </g>
        <g
           id="g5411"
           transform="translate(211.4639,348.9473)">
          <path
             d="M 0,0 C 6.792,0 12.333,8.543 12.333,19.017 12.333,29.491 6.792,38.033 0,38.033 -6.796,38.033 -12.337,29.491 -12.337,19.017 -12.337,8.543 -6.796,0 0,0"
             style="fill:#ffffff;fill-opacity:1;fill-rule:evenodd;stroke:none"
             id="path5413" />
        </g>
        <g
           id="g5415"
           transform="translate(208.1855,370.4053)">
          <path
             d="M 0,0 C 1.323,0 2.559,-0.378 3.603,-1.031 L 0,-6.811 6.808,-6.775 6.81,-6.811 c 0,-3.76 -3.05,-6.809 -6.81,-6.809 -3.762,0 -6.811,3.049 -6.811,6.809 C -6.811,-3.05 -3.762,0 0,0"
             style="fill:#333333;fill-opacity:1;fill-rule:evenodd;stroke:none"
             id="path5417" />
        </g>
        <g
           id="g5419"
           transform="translate(199.0654,293.0537)">
          <path
             d="m 0,0 h -14.907 c 0,4.117 3.337,7.454 7.454,7.454 C -3.337,7.454 0,4.117 0,0"
             style="fill:#edd0c2;fill-opacity:1;fill-rule:evenodd;stroke:none"
             id="path5421" />
        </g>
        <g
           id="g5423"
           transform="translate(223.9912,290.2275)">
          <path
             d="m 0,0 h -19.531 c 0,5.393 4.373,9.766 9.765,9.766 C -4.372,9.766 0,5.393 0,0"
             style="fill:#edd0c2;fill-opacity:1;fill-rule:evenodd;stroke:none"
             id="path5425" />
        </g>
        <g
           id="g5427"
           transform="translate(230.9209,417.8125)">
          <path
             d="m 0,0 c 13.205,0 23.911,4.136 23.911,-9.069 0,-13.204 -10.706,-23.909 -23.911,-23.909 -13.203,0 -23.907,10.705 -23.907,23.909 C -23.907,4.136 -13.203,0 0,0"
             style="fill:#e06e36;fill-opacity:1;fill-rule:evenodd;stroke:none"
             id="path5429" />
        </g>
        <g
           id="g5431"
           transform="translate(468.3818,299.2227)">
          <path
             d="m 0,0 c 5.097,0 9.252,4.155 9.252,9.251 0,5.096 -4.155,9.251 -9.252,9.251 -5.095,0 -9.25,-4.155 -9.25,-9.251 C -9.25,4.155 -5.095,0 0,0"
             style="fill:#823103;fill-opacity:1;fill-rule:evenodd;stroke:none"
             id="path5433" />
        </g>
        <g
           id="g5435"
           transform="translate(483.9297,329.0322)">
          <path
             d="m 0,0 c 3.751,0 6.81,3.059 6.81,6.81 0,3.751 -3.059,6.81 -6.81,6.81 -3.751,0 -6.81,-3.059 -6.81,-6.81 C -6.81,3.059 -3.751,0 0,0"
             style="fill:#823103;fill-opacity:1;fill-rule:evenodd;stroke:none"
             id="path5437" />
        </g>
        <g
           id="g5439"
           transform="translate(439.6006,320.2949)">
          <path
             d="M 0,0 C 2.406,0 4.368,1.962 4.368,4.369 4.368,6.774 2.406,8.737 0,8.737 -2.406,8.737 -4.368,6.774 -4.368,4.369 -4.368,1.962 -2.406,0 0,0"
             style="fill:#823103;fill-opacity:1;fill-rule:evenodd;stroke:none"
             id="path5441" />
        </g>
        <g
           id="g5443"
           transform="translate(422.3828,297.167)">
          <path
             d="m 0,0 c 5.52,0 10.022,4.502 10.022,10.022 0,5.52 -4.502,10.022 -10.022,10.022 -5.52,0 -10.022,-4.502 -10.022,-10.022 C -10.022,4.502 -5.52,0 0,0"
             style="fill:#823103;fill-opacity:1;fill-rule:evenodd;stroke:none"
             id="path5445" />
        </g>
        <g
           id="g5447"
           transform="translate(448.21,297.166)">
          <path
             d="m 0,0 c 4.6,0 8.352,3.752 8.352,8.353 0,4.599 -3.752,8.351 -8.352,8.351 -4.601,0 -8.352,-3.752 -8.352,-8.351 C -8.352,3.752 -4.601,0 0,0"
             style="fill:#823103;fill-opacity:1;fill-rule:evenodd;stroke:none"
             id="path5449" />
        </g>
        <g
           id="g5451"
           transform="translate(494.7227,296.9102)">
          <path
             d="m 0,0 c 6.864,0 12.464,5.599 12.464,12.463 0,6.865 -5.6,12.464 -12.464,12.464 -6.864,0 -12.463,-5.599 -12.463,-12.464 C -12.463,5.599 -6.864,0 0,0"
             style="fill:#823103;fill-opacity:1;fill-rule:evenodd;stroke:none"
             id="path5453" />
        </g>
        <g
           id="g5455"
           transform="translate(467.2256,294.8545)">
          <path
             d="M 0,0 C 7.007,0 12.721,5.714 12.721,12.72 12.721,19.727 7.007,25.44 0,25.44 -7.007,25.44 -12.72,19.727 -12.72,12.72 -12.72,5.714 -7.007,0 0,0"
             style="fill:#823103;fill-opacity:1;fill-rule:evenodd;stroke:none"
             id="path5457" />
        </g>
        <g
           id="g5459"
           transform="translate(477.6338,294.5693)">
          <path
             d="m 0,0 c 7.658,0 13.905,6.247 13.905,13.904 0,7.658 -6.247,13.905 -13.905,13.905 -7.657,0 -13.904,-6.247 -13.904,-13.905 C -13.904,6.247 -7.657,0 0,0"
             style="fill:#823103;fill-opacity:1;fill-rule:evenodd;stroke:none"
             id="path5461" />
        </g>
        <g
           id="g5463"
           transform="translate(399.4473,297.0391)">
          <path
             d="m 0,0 c 3.326,0 6.038,2.713 6.038,6.039 0,3.326 -2.712,6.039 -6.038,6.039 -3.326,0 -6.04,-2.713 -6.04,-6.039 C -6.04,2.713 -3.326,0 0,0"
             style="fill:#823103;fill-opacity:1;fill-rule:evenodd;stroke:none"
             id="path5465" />
        </g>
        <g
           id="g5467"
           transform="translate(380.6875,296.9102)">
          <path
             d="m 0,0 c 5.166,0 9.379,4.214 9.379,9.38 0,5.166 -4.213,9.38 -9.379,9.38 -5.166,0 -9.381,-4.214 -9.381,-9.38 C -9.381,4.214 -5.166,0 0,0"
             style="fill:#823103;fill-opacity:1;fill-rule:evenodd;stroke:none"
             id="path5469" />
        </g>
        <g
           id="g5471"
           transform="translate(406.0645,324.0225)">
          <path
             d="m 0,0 c 3.078,0 5.59,2.511 5.59,5.589 0,3.079 -2.512,5.59 -5.59,5.59 -3.078,0 -5.59,-2.511 -5.59,-5.59 C -5.59,2.511 -3.078,0 0,0"
             style="fill:#823103;fill-opacity:1;fill-rule:evenodd;stroke:none"
             id="path5473" />
        </g>
        <g
           id="g5475"
           transform="translate(404.0713,309.5029)">
          <path
             d="m 0,0 c 2.974,0 5.397,2.424 5.397,5.396 0,2.973 -2.423,5.397 -5.397,5.397 -2.971,0 -5.396,-2.424 -5.396,-5.397 C -5.396,2.424 -2.971,0 0,0"
             style="fill:#823103;fill-opacity:1;fill-rule:evenodd;stroke:none"
             id="path5477" />
        </g>
        <g
           id="g5479"
           transform="translate(456.2402,322.7373)">
          <path
             d="m 0,0 c 4.387,0 7.966,3.578 7.966,7.966 0,4.387 -3.579,7.968 -7.966,7.968 -4.388,0 -7.967,-3.581 -7.967,-7.968 C -7.967,3.578 -4.388,0 0,0"
             style="fill:#823103;fill-opacity:1;fill-rule:evenodd;stroke:none"
             id="path5481" />
        </g>
        <g
           id="g5483"
           transform="translate(424.0498,554.7607)">
          <path
             d="m 0,0 h 67.525 c 18.94,0 34.435,-15.496 34.435,-34.435 v -0.002 c 0,-18.938 -15.495,-34.434 -34.435,-34.434 H 0 c -18.939,0 -34.435,15.496 -34.435,34.434 v 0.002 C -34.435,-15.496 -18.939,0 0,0"
             style="fill:#bad526;fill-opacity:1;fill-rule:evenodd;stroke:none"
             id="path5485" />
        </g>
        <g
           id="g5487"
           transform="translate(402.21,268.7725)">
          <path
             d="m 0,0 h 179.754 c 18.94,0 34.434,-15.497 34.434,-34.436 0,-18.939 -15.494,-34.434 -34.434,-34.434 H 0 c -18.941,0 -34.437,15.495 -34.437,34.434 C -34.437,-15.497 -18.941,0 0,0"
             style="fill:#823103;fill-opacity:1;fill-rule:evenodd;stroke:none"
             id="path5489" />
        </g>
        <g
           id="g5491"
           transform="translate(112.3354,260.5498)">
          <path
             d="m 0,0 h 11.241 c 18.94,0 34.435,-15.496 34.435,-34.437 v -0.001 c 0,-18.939 -15.495,-34.435 -34.435,-34.435 H 0 c -18.94,0 -34.435,15.496 -34.435,34.435 v 0.001 C -34.435,-15.496 -18.94,0 0,0"
             style="fill:#823103;fill-opacity:1;fill-rule:evenodd;stroke:none"
             id="path5493" />
        </g>
        <g
           id="g5495"
           transform="translate(164.1826,239.9902)">
          <path
             d="m 0,0 h 94.568 c 18.941,0 34.436,-15.496 34.436,-34.436 0,-18.94 -15.495,-34.435 -34.436,-34.435 H 0 c -18.94,0 -34.436,15.495 -34.436,34.435 C -34.436,-15.496 -18.94,0 0,0"
             style="fill:#ad521d;fill-opacity:1;fill-rule:evenodd;stroke:none"
             id="path5497" />
        </g>
        <g
           id="g5499"
           transform="translate(375.4209,220.459)">
          <path
             d="m 0,0 h 35.977 c 18.941,0 34.435,-15.496 34.435,-34.436 v -10e-4 c 0,-18.939 -15.494,-34.434 -34.435,-34.434 H 0 c -18.94,0 -34.436,15.495 -34.436,34.434 v 10e-4 C -34.436,-15.496 -18.94,0 0,0"
             style="fill:#ad521d;fill-opacity:1;fill-rule:evenodd;stroke:none"
             id="path5501" />
        </g>
        <g
           id="g5503"
           transform="translate(127.4346,310.5283)">
          <path
             d="m 0,0 c 5.167,0 9.38,4.213 9.38,9.38 0,5.166 -4.213,9.38 -9.38,9.38 -5.167,0 -9.38,-4.214 -9.38,-9.38 C -9.38,4.213 -5.167,0 0,0"
             style="fill:#823103;fill-opacity:1;fill-rule:evenodd;stroke:none"
             id="path5505" />
        </g>
        <g
           id="g5507"
           transform="translate(153.6475,310.5283)">
          <path
             d="m 0,0 c 5.166,0 9.38,4.213 9.38,9.38 0,5.166 -4.214,9.38 -9.38,9.38 -5.167,0 -9.38,-4.214 -9.38,-9.38 C -9.38,4.213 -5.167,0 0,0"
             style="fill:#823103;fill-opacity:1;fill-rule:evenodd;stroke:none"
             id="path5509" />
        </g>
      </g>
    </g>
  </g>
</svg>
